<svg id="svg-source" height="0" version="1.1" 
  xmlns="http://www.w3.org/2000/svg" style="position:absolute; margin-left: -100%" 
  xmlns:xlink="http://www.w3.org/1999/xlink">
  <g id="shopping-cart" data-iconmelon="e-commerce icons:002d682c4fcf689621a3aaee07352d34">
    <path d="M31.769,8.092c-0.186-0.308-0.568-0.674-1.333-0.674H9.131L8.096,5.185c-0.062-0.153-0.145-0.303-0.27-0.469
	C7.754,4.619,7.674,4.53,7.543,4.413c-0.085-0.074-0.174-0.142-0.269-0.2L7.223,4.184C7.127,4.129,7.028,4.08,6.926,4.042
	L6.858,4.02c-0.1-0.033-0.201-0.062-0.306-0.079L6.407,3.924C6.343,3.915,6.278,3.908,6.212,3.908h-4.18C0.912,3.908,0,4.819,0,5.94
	s0.912,2.033,2.032,2.033h2.876l1.162,2.512c0.284,0.831,0.683,1.548,0.685,1.548l2.871,6.445c0.024,0.052,0.052,0.1,0.093,0.163
	l0.535,1.14c0.206,0.673,0.74,1.183,1.396,1.37l-0.006,0.088h13.949l0.639-0.012l-0.008-0.08c0.649-0.19,1.177-0.698,1.382-1.366
	l3.487-7.725C31.331,11.603,32.486,9.281,31.769,8.092z M30.056,11.54l-3.309,7.346l-0.092-0.023l-0.148,0.549
	c-0.104,0.388-0.456,0.659-0.893,0.659c-0.002,0-0.004-0.001-0.006-0.001l-0.659-0.02l0.002,0.031H12.837l-0.624-0.009
	c-0.402,0-0.756-0.271-0.861-0.66l-0.15-0.549l-0.089,0.022l-3.329-7.383c-0.003-0.006-0.377-0.677-0.626-1.418l-1.509-3.27H2.032
	c-0.482,0-0.875-0.392-0.875-0.875c0-0.482,0.392-0.875,0.875-0.875l4.22,0.005l0.106,0.011c0.044,0.008,0.087,0.021,0.159,0.044
	c0.044,0.017,0.086,0.038,0.15,0.073C6.708,5.224,6.745,5.253,6.801,5.3c0.038,0.035,0.072,0.073,0.113,0.126
	C6.961,5.49,6.996,5.552,7.034,5.643l1.357,2.933h22.045c0.272,0,0.323,0.082,0.341,0.114C31.025,9.101,30.611,10.483,30.056,11.54z
	 M14.438,22.406c-1.568,0-2.843,1.275-2.843,2.843s1.275,2.843,2.843,2.843c1.567,0,2.842-1.275,2.842-2.843
	S16.005,22.406,14.438,22.406z M14.438,27.064c-1.002,0-1.816-0.814-1.816-1.815s0.814-1.816,1.816-1.816
	c1.001,0,1.816,0.815,1.816,1.816S15.438,27.064,14.438,27.064z M24.293,22.406c-1.568,0-2.844,1.275-2.844,2.843
	s1.276,2.843,2.844,2.843c1.567,0,2.842-1.275,2.842-2.843S25.861,22.406,24.293,22.406z M24.293,27.064
	c-1.002,0-1.817-0.814-1.817-1.815s0.814-1.816,1.817-1.816c1.001,0,1.816,0.815,1.816,1.816S25.294,27.064,24.293,27.064z"></path>
  </g>
  <g id="barcode" data-iconmelon="e-commerce icons:ca3c2e666c0093c764cca85030df4b06">
    <path d="M22.942,5.533h-2.726v15.274h2.726V5.533z M5.548,5.533H4.183v15.274h1.365V5.533z M6.2,21.899
	c-0.732,0-1.369,0.479-1.369,1.338v1.892c0,0.858,0.637,1.338,1.369,1.338c0.731,0,1.363-0.479,1.363-1.338v-1.892
	C7.562,22.379,6.931,21.899,6.2,21.899z M6.742,25.123c0,0.379-0.221,0.605-0.542,0.605c-0.322,0-0.549-0.227-0.549-0.605v-1.874
	c0-0.378,0.227-0.611,0.549-0.611c0.321,0,0.542,0.233,0.542,0.611V25.123z M18.759,5.533h-2.038v15.274h2.038V5.533z M0,26.447
	h2.789V5.533H0V26.447z M25.765,5.533h-1.366v15.274h1.366V5.533z M8.327,5.533H6.976v15.274h1.351V5.533z M25.683,22.732v0.883
	l0.915-0.795v3.609h0.82v-4.493h-0.82L25.683,22.732z M27.188,20.808h1.332V5.533h-1.332V20.808z M21.924,23.382h0.782v-0.707h1.186
	l-1.458,3.755h0.89l1.458-3.755v-0.738h-2.858V23.382z M29.977,5.533v20.914H32V5.533H29.977z M21.288,23.205
	c0-0.808-0.568-1.306-1.363-1.306c-0.77,0-1.369,0.492-1.369,1.312h0.82c0-0.435,0.277-0.573,0.548-0.573
	c0.347,0,0.543,0.227,0.543,0.562c0,0.208-0.069,0.347-0.234,0.542l-1.678,1.949v0.739h2.731V25.69h-1.735l1.255-1.457
	C21.118,23.874,21.288,23.641,21.288,23.205z M9.755,20.808h4.826V5.533H9.755V20.808z M9.833,23.735
	c-0.106,0-0.227,0.012-0.334,0.056l0.934-1.854H9.536L8.59,23.88c-0.202,0.41-0.379,0.789-0.379,1.199c0,0.89,0.605,1.388,1.4,1.388
	s1.4-0.518,1.4-1.4C11.012,24.233,10.439,23.735,9.833,23.735z M9.612,25.729c-0.334,0-0.581-0.24-0.581-0.656
	s0.246-0.656,0.581-0.656c0.347,0,0.58,0.259,0.58,0.656C10.192,25.488,9.946,25.729,9.612,25.729z M11.649,23.382h0.783v-0.707
	h1.186l-1.457,3.755h0.889l1.458-3.755v-0.738h-2.858V23.382z M17.301,24.107c0.296-0.158,0.517-0.436,0.517-0.922
	c0-0.757-0.574-1.286-1.369-1.286c-0.757,0-1.356,0.479-1.376,1.28h0.82c0.02-0.34,0.246-0.542,0.556-0.542
	c0.296,0,0.548,0.194,0.548,0.573c0,0.316-0.17,0.562-0.567,0.562H16.31v0.713h0.121c0.404,0,0.63,0.246,0.63,0.617
	c0,0.404-0.252,0.625-0.605,0.625c-0.321,0-0.6-0.183-0.611-0.587h-0.82c0.012,0.94,0.7,1.325,1.432,1.325
	c0.77,0,1.426-0.441,1.426-1.338C17.881,24.587,17.623,24.277,17.301,24.107z"></path>
  </g>
  <g id="message" data-iconmelon="e-commerce icons:0be2865a095555bdd02c3863641ae030">
    <path d="M21.501,2.309H10.499C4.71,2.309,0,6.928,0,12.717c0,5.789,4.71,10.499,10.499,10.499h4.762l6.788,6.476l0.021-6.481
	C27.694,23.021,32,18.386,32,12.717C32,6.928,27.29,2.309,21.501,2.309z M21.501,22.057h-0.594l0.021,4.848l-5.204-4.848h-5.226
	c-5.15,0-9.34-4.189-9.34-9.339c0-5.15,4.189-9.25,9.34-9.25h11.002c5.15,0,9.34,4.099,9.34,9.25
	C30.841,17.867,26.651,22.057,21.501,22.057z M7.592,11.005h16.792v-1.16H7.592V11.005z M7.592,15.067h8.698v-1.159H7.592V15.067z"></path>
  </g>
  <g id="money" data-iconmelon="e-commerce icons:7f58faae40137e86b0d0b039cd184623">
    <path d="M16,0C7.177,0,0,7.178,0,16s7.177,16,16,16c8.822,0,16-7.178,16-16S24.822,0,16,0z M16,30.589
	C7.956,30.589,1.411,24.045,1.411,16C1.411,7.956,7.956,1.411,16,1.411c8.045,0,14.589,6.545,14.589,14.589
	C30.589,24.045,24.045,30.589,16,30.589z M16,4.396C9.601,4.396,4.396,9.601,4.396,16c0,6.398,5.205,11.604,11.604,11.604
	c6.398,0,11.604-5.206,11.604-11.604C27.604,9.601,22.398,4.396,16,4.396z M16,26.193c-5.62,0-10.193-4.572-10.193-10.193
	C5.807,10.38,10.38,5.806,16,5.806S26.193,10.38,26.193,16C26.193,21.621,21.62,26.193,16,26.193z M17.096,14.979
	c-0.134-0.03-0.268-0.059-0.401-0.087v-2.431c0.486,0.174,0.849,0.532,0.977,1.207h2.21c-0.207-1.944-1.563-2.835-3.187-3.05V9.247
	h-1.393v1.338c-1.631,0.138-3.441,0.892-3.441,2.868c0,2.053,1.522,2.64,3.082,2.992c0.12,0.028,0.239,0.055,0.359,0.081v2.867
	c-0.818-0.157-1.425-0.648-1.529-1.697h-2.117c0.051,2.18,1.535,3.303,3.646,3.482v1.513h1.393v-1.523
	c1.761-0.208,3.502-1.146,3.502-3.237C20.196,15.937,18.637,15.35,17.096,14.979z M15.302,14.56
	c-0.771-0.231-1.325-0.555-1.325-1.204c0-0.703,0.722-0.941,1.325-1.01V14.56z M16.694,19.398v-2.536
	c0.78,0.232,1.353,0.561,1.386,1.265C18.12,18.966,17.403,19.285,16.694,19.398z"></path>
  </g>
  <g id="message1" data-iconmelon="e-commerce icons:0d46fc04f29a7e24bd3878c4024b77c4">
    <path d="M9.338,10.263c-1.478,0-2.68,1.202-2.68,2.68c0,1.478,1.202,2.68,2.68,2.68c1.477,0,2.68-1.202,2.68-2.68
	C12.018,11.465,10.814,10.263,9.338,10.263z M9.338,14.29c-0.743,0-1.347-0.604-1.347-1.347s0.604-1.347,1.347-1.347
	c0.742,0,1.347,0.604,1.347,1.347S10.08,14.29,9.338,14.29z M15.964,10.263c-1.479,0-2.681,1.202-2.681,2.68
	c0,1.478,1.202,2.68,2.681,2.68c1.477,0,2.68-1.202,2.68-2.68C18.644,11.465,17.44,10.263,15.964,10.263z M15.964,14.29
	c-0.743,0-1.348-0.604-1.348-1.347s0.604-1.347,1.348-1.347c0.742,0,1.347,0.604,1.347,1.347S16.706,14.29,15.964,14.29z
	 M22.631,10.263c-1.479,0-2.681,1.202-2.681,2.68c0,1.478,1.202,2.68,2.681,2.68c1.478,0,2.68-1.202,2.68-2.68
	C25.311,11.465,24.108,10.263,22.631,10.263z M22.631,14.29c-0.742,0-1.348-0.604-1.348-1.347s0.605-1.347,1.348-1.347
	s1.347,0.604,1.347,1.347S23.373,14.29,22.631,14.29z M28.86,0.664H3.138C1.407,0.664,0,2.071,0,3.802v17.094
	c0,1.73,1.407,3.139,3.138,3.139h21.605l7.253,7.303L32,3.802C32,2.071,30.592,0.664,28.86,0.664z M30.664,28.089l-5.363-5.388
	H3.138c-0.995,0-1.806-0.81-1.806-1.806V3.802c0-0.995,0.811-1.805,1.806-1.805H28.86c0.996,0,1.806,0.81,1.806,1.805L30.664,28.089
	z"></path>
  </g>
  <g id="moneybox" data-iconmelon="e-commerce icons:4e8811abe2badddeaf7491607ee4eb3e">
    <path d="M16.721,7.594V7.128c1.089-0.071,1.368-0.832,1.368-1.144c0-0.367-0.022-0.974-1.089-1.27
	c-0.099-0.027-0.191-0.049-0.279-0.071V3.675c0.246,0,0.449,0.236,0.454,0.526h0.777c-0.044-0.756-0.58-1.095-1.231-1.166V2.613
	h-0.323v0.422c-0.656,0.038-1.269,0.421-1.269,1.171c0,0.728,0.547,0.941,1.094,1.089c0.071,0.017,0.137,0.033,0.175,0.049v1.144
	c-0.333-0.065-0.591-0.317-0.585-0.723h-0.777c0.082,0.859,0.553,1.303,1.362,1.363v0.465H16.721z M16.721,5.438
	c0.433,0.121,0.591,0.225,0.591,0.515c0,0.35-0.323,0.509-0.591,0.536V5.438z M15.905,4.13c0-0.302,0.246-0.455,0.492-0.455v0.892
	C16.048,4.485,15.905,4.37,15.905,4.13z M14.234,8.251c-0.908-0.715-1.501-1.811-1.501-3.056c0-2.156,1.748-3.903,3.903-3.903
	c2.156,0,3.903,1.748,3.903,3.903c0,1.292-0.635,2.427-1.601,3.138c0.498,0.074,0.98,0.175,1.451,0.29
	c0.827-0.905,1.336-2.105,1.336-3.428c0-2.811-2.279-5.09-5.09-5.09s-5.09,2.279-5.09,5.09c0,1.228,0.435,2.353,1.158,3.231
	C13.192,8.359,13.709,8.3,14.234,8.251z M7.348,15.102c-0.988,0-1.791,0.771-1.791,1.72c0,0.947,0.803,1.719,1.791,1.719
	c0.987,0,1.791-0.771,1.791-1.719C9.139,15.873,8.335,15.102,7.348,15.102z M7.348,17.325c-0.318,0-0.576-0.227-0.576-0.504
	c0-0.278,0.258-0.504,0.576-0.504c0.317,0,0.576,0.226,0.576,0.504C7.924,17.099,7.666,17.325,7.348,17.325z M29.344,18.939
	c-0.519-5.697-5.77-9.812-13.071-9.812c-2.175,0-5.031,0.494-5.976,0.669C9.832,9.38,8.768,8.58,7.471,8.58
	c-0.429,0-0.849,0.087-1.286,0.278c-0.617,0.321-1.041,0.94-1.162,1.7c-0.108,0.677,0.038,1.37,0.396,1.946
	c-1.686,1.57-3.047,3.181-3.267,5.881c-0.079,0.2-0.104,0.2-0.336,0.201c-0.308,0.003-0.823,0.006-1.239,0.545
	C0.15,19.69-0.44,22.831,0.511,24.117l0.082,0.09c0.759,0.683,1.525,0.704,2.142,0.722c0.648,0.02,1.118,0.033,1.674,0.643
	c0.566,0.719,1.204,1.129,1.879,1.563c0.158,0.102,0.32,0.206,0.487,0.318c-0.006,0.015-0.012,0.029-0.018,0.045
	c-0.201,0.525-0.538,1.405-0.203,2.551l0.038,0.099c0.364,0.739,1.766,0.85,2.57,0.85c0.398,0,1.136-0.031,1.607-0.24l0.088-0.043
	c0.051,0.285,0.155,0.559,0.364,0.775c0.15,0.156,0.414,0.34,0.87,0.358c0.201,0.032,0.484,0.048,0.887,0.048
	c0.406,0,0.896-0.016,1.395-0.033l0.156-0.027c0.613-0.188,0.76-0.834,0.82-1.33c0.378,0.023,0.761,0.036,1.144,0.036
	c1.419,0,2.333-0.049,3.418-0.309c-0.086,0.367-0.151,0.767,0.064,1.112c0.126,0.205,0.324,0.342,0.57,0.396l0.201,0.045
	l0.107-0.049c0.129,0,0.318,0.014,0.539,0.029c0.337,0.025,0.757,0.055,1.162,0.055c0.893,0,1.437-0.15,1.747-0.489
	c0.612-0.56,0.59-1.589,0.569-2.5c-0.008-0.35-0.019-0.865,0.041-1.054c3.09-1.987,4.093-4.232,4.287-7.016
	c0.03-0.426,2.862-1.15,2.803-2.97C31.111,19.055,29.374,19.263,29.344,18.939z M24.257,26.753
	c-0.642,0.341-0.622,1.199-0.603,2.106c0.011,0.49,0.032,1.402-0.178,1.579l-0.054,0.055c-0.007,0.005-0.172,0.113-0.869,0.113
	c-0.368,0-0.754-0.028-1.075-0.052c-0.143-0.01-0.274-0.019-0.389-0.025c0.012-0.053,0.025-0.104,0.036-0.147
	c0.097-0.393,0.206-0.84-0.072-1.195c-0.185-0.235-0.443-0.351-0.836-0.289l-0.076,0.018c-1.225,0.354-2.078,0.411-3.648,0.411
	c-0.531,0-1.061-0.026-1.577-0.075l-0.061-0.003c-0.602,0-0.662,0.613-0.691,0.909c-0.011,0.116-0.034,0.354-0.074,0.498
	c-0.399,0.014-0.784,0.024-1.112,0.024c-0.458,0-0.64-0.021-0.707-0.034l-0.173,0.002c-0.087-0.114-0.069-0.612-0.062-0.825
	c0.017-0.468,0.032-0.908-0.318-1.178l-0.082-0.062l-0.098-0.033c-0.173-0.056-0.343-0.115-0.511-0.177l-0.18-0.066l-0.186,0.049
	c-0.617,0.164-0.57,0.826-0.552,1.076c0.005,0.074,0.014,0.196,0.02,0.262c-0.203,0.049-0.544,0.09-0.969,0.09
	c-0.766,0-1.292-0.126-1.478-0.214c-0.155-0.687,0.054-1.231,0.208-1.636c0.135-0.354,0.321-0.837-0.051-1.208L7.765,26.66
	c-0.283-0.202-0.557-0.379-0.819-0.548c-0.613-0.394-1.142-0.734-1.609-1.325c-0.933-1.025-1.839-1.052-2.567-1.072
	c-0.522-0.015-0.906-0.026-1.314-0.368c-0.507-0.801-0.096-3.125,0.086-3.475c0.048-0.062,0.053-0.067,0.283-0.069
	c0.383-0.003,1.096-0.007,1.495-1.069l0.037-0.17c0.165-2.309,1.239-3.676,3.292-5.538l0.469-0.425l-0.443-0.451
	c-0.363-0.37-0.533-0.894-0.452-1.399c0.061-0.375,0.251-0.672,0.484-0.795c0.245-0.106,0.502-0.16,0.764-0.16
	c1.178,0,2.176,1.06,2.184,1.069l0.231,0.251l0.335-0.066c0.036-0.007,3.586-0.705,6.053-0.705c6.987,0,11.682,3.708,11.682,9.229
	C27.955,23.158,27.021,24.975,24.257,26.753z"></path>
  </g>
  <g id="shipping" data-iconmelon="e-commerce icons:7a09c8822d3657a6083e1b7e5626a3bc">
    <path d="M0.526,21.124c-0.135,0.41-0.021,0.695,0.39,0.832l12.01,3.904c0.048,0.016,0.097,0.025,0.146,0.033
	c0-0.543,0.092-0.657,0.259-1.143L1.408,20.875C0.998,20.739,0.662,20.714,0.526,21.124z M11.102,11.258l-6.099,2.004l3.604,5.313
	l0.64-1.876l3.754,1.281l1.217-3.565l-3.755-1.28L11.102,11.258z M12.76,15.132l-0.475,1.392l-3.755-1.282l-0.268,0.783
	l-1.456-2.147l2.465-0.81l-0.268,0.783L12.76,15.132z M31.978,8.132c-0.073-0.426-0.385-0.479-0.811-0.405l-8.361,1.397
	l-0.243,0.791h0l-3.872,11.701c0.491,0.089,0.713,0.159,1.14,0.387l3.875-11.706l7.825-1.464C31.956,8.76,32.051,8.559,31.978,8.132
	z M17.833,22.798c-1.934,0-3.501,1.566-3.501,3.501c0,1.934,1.567,3.501,3.501,3.501s3.501-1.567,3.501-3.501
	C21.334,24.364,19.767,22.798,17.833,22.798z M17.833,28.786c-1.374,0-2.487-1.113-2.487-2.487c0-1.373,1.113-2.487,2.487-2.487
	c1.374,0,2.487,1.114,2.487,2.487C20.319,27.673,19.206,28.786,17.833,28.786z M16.594,21.693l0.303-0.077l4.701-14.007L14.08,5.098
	l-1.447,4.317l-1.457-0.5l1.409-4.316L5.408,2.2L0,18.424l14.289,4.784l0.252-0.276C15.094,22.324,15.804,21.896,16.594,21.693z
	 M13.958,21.887L1.452,17.699L6.134,3.653l5.005,1.673l-1.405,4.31l3.622,1.24l1.448-4.326l5.34,1.784l-4.14,12.335
	C15.238,20.915,14.541,21.33,13.958,21.887z M17.832,25.505c-0.437,0-0.791,0.354-0.791,0.79s0.354,0.791,0.791,0.791
	s0.791-0.354,0.791-0.791S18.269,25.505,17.832,25.505z"></path>
  </g>
  <g id="baggage" data-iconmelon="e-commerce icons:f1963320356743ee0ca174c163d7dcc4">
    <path d="M28.417,7.833h-2.467V3.039C25.951,1.363,24.587,0,22.912,0H9.078C7.402,0,6.04,1.363,6.04,3.039v4.795H3.582
	c-1.781,0-3.23,1.494-3.23,3.275V28.77c0,1.781,1.449,3.23,3.23,3.23h24.835c1.782,0,3.23-1.449,3.23-3.23V11.108
	C31.648,9.327,30.199,7.833,28.417,7.833z M6.742,30.577h-3.16c-0.996,0-1.808-0.811-1.808-1.808V11.108
	c0-0.997,0.812-1.853,1.808-1.853h3.16V30.577z M22.387,30.577H9.589V9.256h12.797V30.577z M10.309,7.833V5.419
	c0-0.63,0.512-1.143,1.142-1.143h9.089c0.63,0,1.142,0.513,1.142,1.143v2.414H10.309z M24.528,7.817h-1.425V5.419
	c0-1.414-1.15-2.565-2.564-2.565h-9.089c-1.414,0-2.565,1.151-2.565,2.565v2.398H7.462V3.039c0-0.891,0.725-1.616,1.616-1.616
	h13.834c0.891,0,1.616,0.725,1.616,1.616V7.817z M30.226,28.77c0,0.997-0.812,1.808-1.808,1.808h-3.184V9.256h3.184
	c0.997,0,1.808,0.856,1.808,1.853V28.77z"></path>
  </g>
  <g id="package" data-iconmelon="e-commerce icons:6e2f0f45b897d28b2514386f156771f3">
    <path d="M10.514,9.519c-0.867,0-1.568,0.702-1.568,1.567c0,0.866,0.701,1.568,1.568,1.568c0.865,0,1.567-0.702,1.567-1.568
	C12.082,10.221,11.379,9.519,10.514,9.519z M22.088,9.519c-0.867,0-1.568,0.702-1.568,1.567c0,0.866,0.701,1.568,1.568,1.568
	c0.865,0,1.567-0.702,1.567-1.568C23.656,10.221,22.954,9.519,22.088,9.519z M28.518,7.77c0-1.026-0.836-1.861-1.862-1.861h-4.284
	C22.208,2.624,19.493,0,16.168,0s-6.039,2.624-6.203,5.908H5.348c-1.027,0-1.862,0.835-1.859,1.792L1.333,30.138
	C1.333,31.165,2.169,32,3.196,32h25.611c1.027,0,1.862-0.835,1.859-1.931L28.518,7.77z M16.168,1.447
	c2.527,0,4.602,1.974,4.763,4.461h-9.524C11.567,3.42,13.641,1.447,16.168,1.447z M28.807,30.553H3.196
	c-0.229,0-0.415-0.187-0.418-0.346L4.933,7.77c0-0.229,0.186-0.415,0.415-0.415h21.308c0.229,0,0.415,0.186,0.418,0.484
	l2.149,22.299C29.223,30.367,29.037,30.553,28.807,30.553z"></path>
  </g>
  <g id="credit-card" data-iconmelon="e-commerce icons:c3144b166f93e0f6b73aee04a0a48397">
    <path d="M29.018,4.751H2.981C1.337,4.751,0,6.089,0,7.733v16.534c0,1.644,1.337,2.981,2.981,2.981h26.036
	c1.645,0,2.982-1.338,2.982-2.981V7.733C32,6.089,30.662,4.751,29.018,4.751z M30.638,24.267c0,0.893-0.727,1.62-1.621,1.62H2.981
	c-0.893,0-1.62-0.727-1.62-1.62V13.603h29.276V24.267z M30.638,10.236H1.362V7.733c0-0.894,0.727-1.62,1.62-1.62h26.036
	c0.894,0,1.621,0.727,1.621,1.62V10.236z M8.848,22.494H2.724v1.338h6.124V22.494z M19.043,22.494H9.548v1.338h9.495V22.494z"></path>
  </g>
  <g id="money1" data-iconmelon="e-commerce icons:3d79fc471a6a05b416991991666d07e9">
    <path d="M31.969,19.236c0-2.385-3.482-4.253-7.749-4.253c-0.284,0-0.626,0.009-0.901,0.025v-6.96
	c0.04-0.176,0.025-0.355,0.025-0.538c0-2.35-3.238-4.191-7.506-4.191c-4.267,0-7.609,1.841-7.609,4.191
	c0,0.183,0.026,0.362,0.066,0.538v1.909c-0.241-0.012-0.485-0.02-0.733-0.02c-4.267,0-7.547,1.841-7.547,4.191
	c0,0.184-0.035,0.362,0.004,0.539v9.748h0.052c0.134,2.222,3.372,3.944,7.491,3.944c4.117,0,7.561-1.719,7.7-3.944h0.052v-0.406
	c0.243,0.013,0.274,0.034,0.524,0.034c0.285,0,0.563-0.012,0.838-0.028v0.115h0.056l-0.017,0.265c0,2.291,3.346,4.287,7.616,4.287
	s7.615-1.821,7.615-4.152l-0.008-0.264h0.048v-4.483C32.026,19.604,31.969,19.422,31.969,19.236z M24.331,16.334
	c3.754,0,6.371,1.529,6.371,2.901s-2.617,2.901-6.371,2.901s-6.37-1.528-6.37-2.901S20.577,16.334,24.331,16.334z M30.77,21.614
	v0.734c-0.359,1.469-3.214,2.698-6.438,2.698c-3.224,0-6.077-1.228-6.438-2.696v-0.736c1.372,1.139,3.72,1.875,6.438,1.875
	S29.397,22.753,30.77,21.614z M15.838,15.696c-0.248,0-0.283-0.01-0.524-0.025v-1.004c0.024-0.109,0.041-0.22,0.053-0.332
	c0.224,0.012,0.241,0.02,0.472,0.02c2.704,0,4.922-0.743,6.239-1.882v0.564C21.724,14.485,19.016,15.696,15.838,15.696z
	 M22.183,15.133c-0.111,0.016-0.222,0.031-0.33,0.05c0.111-0.082,0.229-0.162,0.33-0.249V15.133z M15.838,4.651
	c3.699,0,6.173,1.507,6.173,2.859c0,1.353-2.474,2.858-6.173,2.858S9.561,8.862,9.561,7.51C9.561,6.158,12.139,4.651,15.838,4.651z
	 M9.494,9.853c0.115,0.096,0.246,0.184,0.375,0.273c-0.123-0.021-0.25-0.035-0.375-0.053V9.853z M7.562,11.27
	c3.699,0,6.381,1.506,6.381,2.858s-2.682,2.858-6.381,2.858c-3.699,0-6.277-1.506-6.277-2.858S3.863,11.27,7.562,11.27z
	 M1.218,16.472c1.353,1.122,3.666,1.848,6.344,1.848c2.679,0,5.096-0.726,6.448-1.848v0.723c-0.354,1.448-3.27,2.658-6.448,2.658
	c-3.176,0-5.988-1.209-6.344-2.656V16.472z M1.218,19.093c1.318,1.137,3.64,1.881,6.344,1.881c2.704,0,5.129-0.744,6.448-1.883
	v0.564c-0.354,1.448-3.27,2.658-6.448,2.658c-3.176,0-5.988-1.21-6.344-2.656V19.093z M1.218,21.555
	c1.318,1.138,3.64,1.881,6.344,1.881c2.704,0,5.129-0.744,6.448-1.882v0.564c-0.354,1.448-3.27,2.658-6.448,2.658
	c-3.176,0-5.988-1.209-6.344-2.656V21.555z M7.562,27.237c-3.297,0-6.194-1.304-6.367-2.823h0.022v-0.398
	c1.318,1.137,3.64,1.88,6.344,1.88c2.704,0,5.129-0.743,6.448-1.882v0.399h0.022C13.859,25.934,10.859,27.237,7.562,27.237z
	 M15.196,13.204c-0.251-0.637-0.964-1.214-1.666-1.7c0.727,0.124,1.498,0.197,2.307,0.197c2.679,0,4.888-0.727,6.239-1.848v0.723
	c-0.354,1.447-3.062,2.658-6.239,2.658C15.551,13.234,15.476,13.223,15.196,13.204z M16.676,22.889
	c-0.274,0.02-0.554,0.033-0.838,0.033c-0.248,0-0.283-0.01-0.524-0.024v-1.181c0.241,0.014,0.276,0.024,0.524,0.024
	c0.286,0,0.563-0.014,0.838-0.032V22.889z M16.676,20.586c-0.274,0.019-0.554,0.033-0.838,0.033c-0.248,0-0.283-0.01-0.524-0.024
	v-1.34c0.241,0.014,0.276,0.024,0.524,0.024c0.265,0,0.522-0.012,0.777-0.027c0.007,0.156,0.027,0.31,0.061,0.46V20.586z
	 M16.855,18.113c-0.333,0.028-0.673,0.044-1.018,0.044c-0.248,0-0.283-0.01-0.524-0.025v-1.34c0.241,0.015,0.276,0.024,0.524,0.024
	c0.816,0,1.592-0.075,2.321-0.201C17.556,17.054,17.108,17.56,16.855,18.113z M24.331,27.544c-3.431,0-6.443-1.39-6.478-2.981
	l0.011-0.297h0.019c1.336,1.159,3.697,1.918,6.448,1.918c2.75,0,5.11-0.758,6.446-1.918h0.021l0.01,0.27
	C30.809,26.138,27.781,27.544,24.331,27.544z M23.628,19.881c-0.056-0.062-0.1-0.185-0.131-0.368h-0.904
	c-0.007,0.401,0.181,0.685,0.562,0.852c0.217,0.093,0.545,0.156,0.985,0.188v0.433h0.325v-0.437
	c0.346-0.018,0.646-0.077,0.897-0.178c0.413-0.166,0.62-0.43,0.62-0.795c0-0.277-0.15-0.491-0.451-0.643
	c-0.182-0.092-0.538-0.197-1.066-0.316v-0.828c0.221,0.01,0.373,0.066,0.456,0.169c0.049,0.06,0.082,0.154,0.1,0.283h0.882
	c-0.014-0.348-0.209-0.599-0.584-0.754c-0.207-0.097-0.491-0.155-0.854-0.174v-0.293h-0.325v0.289
	c-0.228,0.012-0.4,0.03-0.519,0.055c-0.195,0.039-0.371,0.11-0.53,0.213c-0.123,0.08-0.218,0.175-0.286,0.285
	c-0.068,0.11-0.103,0.232-0.103,0.367c0,0.204,0.088,0.379,0.263,0.524c0.176,0.145,0.477,0.258,0.903,0.339l0.271,0.052v0.928
	C23.886,20.042,23.715,19.979,23.628,19.881z M24.466,19.214c0.186,0.045,0.316,0.088,0.395,0.13
	c0.13,0.073,0.194,0.171,0.194,0.296c0,0.164-0.069,0.279-0.208,0.346c-0.08,0.038-0.207,0.064-0.381,0.078V19.214z M23.779,18.446
	c-0.142-0.07-0.212-0.167-0.212-0.289c0-0.112,0.047-0.2,0.141-0.264c0.095-0.064,0.238-0.099,0.433-0.102v0.763
	C23.978,18.522,23.857,18.485,23.779,18.446z M15.183,8.449c-0.057-0.062-0.1-0.185-0.131-0.367h-0.905
	c-0.006,0.401,0.181,0.686,0.563,0.853c0.217,0.092,0.545,0.154,0.985,0.187v0.433h0.324V9.116c0.347-0.017,0.646-0.077,0.897-0.178
	c0.414-0.165,0.62-0.431,0.62-0.795c0-0.277-0.15-0.491-0.45-0.644c-0.183-0.091-0.538-0.197-1.067-0.315V6.356
	c0.221,0.01,0.373,0.066,0.457,0.17c0.049,0.059,0.081,0.153,0.1,0.282h0.881c-0.014-0.348-0.208-0.6-0.584-0.754
	c-0.207-0.097-0.491-0.155-0.854-0.174V5.586h-0.324v0.29c-0.229,0.012-0.401,0.029-0.52,0.054c-0.194,0.039-0.371,0.11-0.53,0.213
	c-0.123,0.079-0.218,0.174-0.286,0.284c-0.068,0.11-0.102,0.233-0.102,0.368c0,0.205,0.088,0.379,0.263,0.524
	c0.175,0.145,0.477,0.258,0.902,0.339l0.272,0.052v0.928C15.44,8.609,15.27,8.546,15.183,8.449z M16.02,7.782
	c0.186,0.044,0.317,0.088,0.395,0.13c0.13,0.072,0.195,0.171,0.195,0.295c0,0.164-0.069,0.279-0.209,0.346
	c-0.079,0.038-0.206,0.063-0.381,0.078V7.782z M15.333,7.015c-0.141-0.071-0.211-0.167-0.211-0.289c0-0.111,0.047-0.199,0.141-0.264
	s0.237-0.099,0.433-0.101v0.763C15.531,7.09,15.411,7.054,15.333,7.015z M6.959,15.001c-0.056-0.062-0.1-0.185-0.131-0.367H5.924
	c-0.007,0.401,0.181,0.685,0.562,0.852c0.217,0.092,0.545,0.155,0.985,0.187v0.433h0.325v-0.438
	c0.346-0.018,0.646-0.077,0.898-0.178c0.413-0.165,0.62-0.43,0.62-0.795c0-0.277-0.15-0.491-0.45-0.644
	c-0.183-0.091-0.538-0.197-1.068-0.316v-0.827c0.22,0.01,0.374,0.066,0.457,0.169c0.049,0.06,0.082,0.153,0.1,0.282h0.881
	c-0.013-0.347-0.207-0.599-0.583-0.754c-0.207-0.097-0.491-0.155-0.854-0.174v-0.293H7.472v0.289
	c-0.228,0.012-0.401,0.03-0.52,0.054c-0.194,0.039-0.371,0.11-0.529,0.213c-0.123,0.08-0.218,0.175-0.286,0.285
	c-0.068,0.11-0.103,0.232-0.103,0.367c0,0.204,0.088,0.379,0.263,0.524c0.176,0.145,0.477,0.258,0.903,0.339l0.271,0.052v0.928
	C7.217,15.161,7.046,15.098,6.959,15.001z M7.796,14.333c0.185,0.045,0.317,0.088,0.394,0.13c0.13,0.073,0.196,0.171,0.196,0.296
	c0,0.163-0.07,0.279-0.209,0.346c-0.08,0.038-0.207,0.063-0.381,0.078V14.333z M7.11,13.566c-0.141-0.071-0.211-0.167-0.211-0.289
	c0-0.112,0.047-0.199,0.141-0.264s0.238-0.099,0.432-0.102v0.763C7.309,13.642,7.188,13.605,7.11,13.566z"></path>
  </g>
  <g id="money2" data-iconmelon="e-commerce icons:a29a44233362cc5e362e86e4e76745ec">
    <path d="M14.691,9.066C14.58,8.943,14.494,8.7,14.433,8.339h-1.79C12.629,9.133,13,9.695,13.756,10.025
	c0.429,0.184,1.079,0.307,1.95,0.37v0.856h0.643v-0.864c0.686-0.035,1.278-0.152,1.778-0.354c0.817-0.327,1.227-0.852,1.227-1.574
	c0-0.548-0.298-0.973-0.893-1.274c-0.359-0.181-1.064-0.389-2.112-0.624v-1.64c0.438,0.021,0.738,0.132,0.905,0.336
	c0.096,0.118,0.161,0.305,0.196,0.56h1.743c-0.026-0.688-0.41-1.186-1.154-1.493c-0.41-0.192-0.973-0.307-1.69-0.344V3.399h-0.643
	v0.572c-0.451,0.023-0.794,0.059-1.028,0.108c-0.384,0.077-0.733,0.218-1.047,0.422c-0.244,0.157-0.433,0.346-0.568,0.563
	c-0.134,0.218-0.201,0.461-0.201,0.727c0,0.405,0.173,0.75,0.521,1.037c0.347,0.287,0.942,0.511,1.786,0.671l0.538,0.104V9.44
	C15.202,9.383,14.864,9.258,14.691,9.066z M16.349,7.745c0.368,0.088,0.628,0.175,0.781,0.258c0.258,0.144,0.386,0.338,0.386,0.584
	c0,0.325-0.137,0.553-0.412,0.685c-0.158,0.074-0.409,0.126-0.755,0.155V7.745z M14.989,6.227c-0.278-0.141-0.418-0.331-0.418-0.573
	c0-0.22,0.094-0.395,0.279-0.522c0.187-0.127,0.471-0.193,0.855-0.2v1.51C15.383,6.375,15.145,6.304,14.989,6.227z M29.139,7.281
	C29.139,3.199,23.373,0,15.96,0C8.548,0,2.859,3.199,2.859,7.281c0,0.318-0.07,0.629-0.001,0.936v16.933h0.089
	C3.181,29.009,8.805,32,15.96,32c7.151,0,12.851-2.987,13.092-6.851h0.09V8.217C29.211,7.911,29.139,7.6,29.139,7.281z M15.96,2.315
	c6.426,0,11.221,2.617,11.221,4.966c0,2.348-4.795,4.965-11.221,4.965c-6.425,0-11.18-2.618-11.18-4.965
	C4.78,4.933,9.535,2.315,15.96,2.315z M4.664,11.353c2.349,1.948,6.643,3.208,11.296,3.208c4.654,0,8.988-1.261,11.337-3.208v1.256
	c-0.616,2.515-5.816,4.617-11.337,4.617c-5.517,0-10.678-2.102-11.296-4.614V11.353z M4.664,15.906
	c2.29,1.975,6.6,3.266,11.296,3.266c4.697,0,9.047-1.291,11.337-3.269v0.981c-0.616,2.515-5.816,4.616-11.337,4.616
	c-5.517,0-10.678-2.101-11.296-4.614V15.906z M4.664,20.182c2.29,1.977,6.6,3.268,11.296,3.268c4.697,0,9.047-1.292,11.337-3.27
	v0.981c-0.616,2.515-5.816,4.616-11.337,4.616c-5.517,0-10.678-2.1-11.296-4.612V20.182z M15.96,30.052
	c-5.728,0-11.036-2.264-11.335-4.902h0.039v-0.691c2.29,1.975,6.6,3.267,11.296,3.267c4.697,0,9.047-1.292,11.337-3.27v0.694h0.039
	C27.035,27.788,21.688,30.052,15.96,30.052z"></path>
  </g>
  <g id="shopping-cart1" data-iconmelon="e-commerce icons:7c96e2dece0152dc594d66b260f79db0">
    <path d="M22.463,25.841c0.528,0,0.918-0.429,0.918-0.958v-6.786c0-0.529-0.39-0.958-0.918-0.958c-0.529,0-0.92,0.429-0.92,0.958
	v6.786C21.543,25.413,21.934,25.841,22.463,25.841z M18.156,25.841c0.529,0,0.919-0.429,0.919-0.958v-6.786
	c0-0.529-0.39-0.958-0.919-0.958s-0.919,0.429-0.919,0.958v6.786C17.237,25.413,17.627,25.841,18.156,25.841z M13.851,25.841
	c0.528,0,0.919-0.429,0.919-0.958v-6.786c0-0.529-0.391-0.958-0.919-0.958c-0.529,0-0.919,0.429-0.919,0.958v6.786
	C12.932,25.413,13.321,25.841,13.851,25.841z M29.426,8.511h-5.327l-2.731-4.396c-0.342-0.593-0.98-0.961-1.666-0.961
	c-0.336,0-0.668,0.089-0.959,0.258c-0.918,0.529-1.233,1.707-0.689,2.647l1.564,2.451h-7.976l1.58-2.475
	c0.529-0.917,0.214-2.095-0.704-2.624c-0.292-0.169-0.623-0.258-0.959-0.258c-0.686,0-1.323,0.368-1.655,0.943L7.161,8.511H2.574
	C1.155,8.511,0,9.667,0,11.086v1.47c0,1.274,0.934,2.525,2.152,2.728l1.931,11.042c0.03,1.394,1.173,2.519,2.573,2.519h18.605
	c1.401,0,2.545-1.125,2.574-2.52l1.921-11.032C31.019,15.128,32,13.862,32,12.556v-1.47C32,9.667,30.845,8.511,29.426,8.511z
	 M26.615,26.167l-0.009,0.104c0,0.741-0.604,1.344-1.345,1.344H6.656c-0.741,0-1.344-0.603-1.344-1.344L3.407,15.327h25.096
	L26.615,26.167z M30.77,12.556c0,0.74-0.603,1.541-1.344,1.541H2.574c-0.741,0-1.344-0.8-1.344-1.541v-1.47
	c0-0.741,0.603-1.344,1.344-1.344h5.271l3.113-5.011c0.184-0.318,0.623-0.439,0.944-0.253c0.33,0.19,0.444,0.614,0.268,0.92
	L9.396,9.742h12.467l-2.76-4.32c-0.189-0.33-0.076-0.753,0.253-0.944c0.323-0.186,0.756-0.074,0.955,0.27l3.104,4.994h6.011
	c0.741,0,1.344,0.603,1.344,1.344V12.556z M9.545,25.841c0.528,0,0.918-0.429,0.918-0.958v-6.786c0-0.529-0.39-0.958-0.918-0.958
	c-0.529,0-0.919,0.429-0.919,0.958v6.786C8.626,25.413,9.016,25.841,9.545,25.841z"></path>
  </g>
  <g id="gift" data-iconmelon="e-commerce icons:05fa65d254ada5a9cb5c2f1e8d87f02b">
    <path d="M29.084,7.154h-4.807c0.157-0.146,0.731-0.497,0.866-0.678c0.757-1.01,1.016-2.355,0.677-3.51
	c-0.473-1.612-1.773-2.575-3.479-2.575c-1.017,0-1.993,0.371-2.546,0.967c-0.759,0.818-2.841,3.57-3.764,4.8
	c-0.923-1.23-3.004-3.982-3.764-4.8c-0.553-0.596-1.528-0.967-2.546-0.967c-1.706,0-3.007,0.962-3.479,2.575
	c-0.339,1.155-0.08,2.5,0.677,3.51C7.053,6.657,7.5,7.007,7.657,7.154H2.915C1.308,7.154,0,8.462,0,10.07v5.262h1.356v13.362
	c0,1.607,1.308,2.915,2.916,2.915h23.435c1.607,0,2.915-1.308,2.915-2.915V15.332H32V10.07C32,8.462,30.692,7.154,29.084,7.154z
	 M14.281,30.311H4.272c-0.857,0-1.555-0.76-1.555-1.617V15.401h11.563V30.311z M14.281,13.949H1.362V10.07
	c0-0.857,0.696-1.555,1.553-1.555h11.366V13.949z M9.456,6.471c-0.731,0-1.221-0.508-1.447-0.811
	c-0.498-0.664-0.678-1.571-0.46-2.312c0.423-1.441,1.661-1.597,2.173-1.597c0.729,0,1.303,0.268,1.548,0.532
	c0.623,0.671,2.289,2.854,3.301,4.197C12.948,6.477,10.35,6.471,9.456,6.471z M20.792,2.285c0.245-0.265,0.819-0.532,1.548-0.532
	c0.513,0,1.75,0.156,2.173,1.597c0.217,0.74,0.037,1.647-0.46,2.311c-0.227,0.303-0.716,0.811-1.447,0.811
	c-0.894,0-3.493,0.006-5.115,0.011C18.504,5.139,20.169,2.956,20.792,2.285z M29.26,28.694c0,0.857-0.697,1.617-1.554,1.617h-10.02
	v-14.91H29.26V28.694z M30.638,13.949H17.687V8.515h11.397c0.858,0,1.554,0.698,1.554,1.555V13.949z"></path>
  </g>
  <g id="like" data-iconmelon="e-commerce icons:c1a2f75012da3876c0d62896144f5294">
    <path d="M31.238,18.526c0.344-0.438,0.739-1.165,0.761-2.209c0.061-2.938-2.753-3.924-4.299-4.037h-4.721l-0.066-0.004
	c-0.191-0.414,0.106-0.872,0.103-0.872c0,0,0,0,0,0.001c0.062-0.077,1.562-1.91,2.572-4.906c1.12-3.325-1.752-5.679-1.875-5.777
	l-0.167-0.099c-0.111-0.045-1.111-0.431-2.058,0.126c-0.723,0.426-1.16,1.249-1.301,2.449c-0.326,2.789-2.667,5.125-3.759,5.981
	c-0.154,0.12-0.277,0.217-0.36,0.29c-0.796,0.688-1.586,2.489-2.184,3.715c-0.4,0.82-1.498,2.139-2.062,2.625
	c-0.385,0.009-1.146,0.022-1.653,0.025C9.976,15.223,9.409,14.5,8.735,14.5H1.511C0.678,14.5,0,15.177,0,16.01v14.006
	c0,0.833,0.678,1.511,1.511,1.511h7.225c0.734,0,1.347-0.528,1.48-1.225c0.26-0.011,0.496-0.254,0.633-0.235
	c0.188,0.204,0.61,1,1.646,1.419l0.122,0.05h0.132c0.082,0,4.855,0.014,9.185,0.014c2.184,0,4.082-0.003,4.855-0.014
	c1.4-0.019,2.127-0.633,2.491-1.145c0.705-0.99,0.72-2.118,0.592-2.791c0.915-0.843,1.022-2.361,1.046-2.992
	c0.021-0.563-0.117-0.966-0.303-1.371c0.515-0.466,1.035-1.379,1.107-2.539C31.784,19.686,31.509,18.973,31.238,18.526z
	 M8.881,30.016c0,0.081-0.065,0.146-0.146,0.146H1.511c-0.081,0-0.146-0.065-0.146-0.146V16.01c0-0.08,0.065-0.146,0.146-0.146
	h7.225c0.08,0,0.146,0.065,0.146,0.146V30.016z M29.941,17.924l-0.676,0.497l0.619,0.57c0.022,0.021,0.544,0.514,0.476,1.623
	c-0.077,1.267-0.937,1.807-0.945,1.811l-0.987,0.412l0.793,0.702c0.065,0.075,0.39,0.468,0.327,1.121
	c-0.054,0.557-0.258,1.692-0.852,2.146l-0.773,0.296l0.541,0.462c0.138,0.413,0.162,1.394-0.296,2.037
	c-0.266,0.375-0.723,0.562-1.396,0.57c-2.168,0.029-12.532,0.004-13.885,0.001c-0.429-0.183-0.86-0.405-1.002-0.519
	c-0.119-0.214-0.444-1.004-1.671-0.965v-11.49c0.721-0.005,1.877-0.03,1.877-0.03l0.235-0.005l0.181-0.147
	c0.079-0.063,1.933-1.857,2.604-3.232c0.642-1.317,1.303-2.81,1.848-3.281c0.072-0.062,0.179-0.145,0.311-0.249
	c1.121-0.878,3.881-3.543,4.272-6.896c0.087-0.737,0.305-1.23,0.631-1.428c0.278-0.167,0.618-0.109,0.771-0.069
	c0.403,0.365,2.077,2.046,1.351,4.203c-0.924,2.745-2.317,4.457-2.36,4.511c-0.347,0.486-0.759,1.571-0.104,2.552
	c0.297,0.447,0.812,0.56,1.192,0.519l4.625-0.002c0.124,0.01,3.035,0.271,2.987,2.647C30.611,17.402,29.961,17.908,29.941,17.924z"></path>
  </g>
  <g id="package1" data-iconmelon="e-commerce icons:de2d76203b2448ee25bda0d82fa73c00">
    <path d="M31.666,7.132l0.028-0.014L16.191,0L0.264,7.285l0.027,0.013v17.39l15.094,7.266V32l0.05-0.023l0.012,0.006l0.006-0.013
	l16.283-7.442V7.132H31.666z M16.191,1.415l12.553,5.73l-3.352,1.604L12.535,3.088L16.191,1.415z M1.669,23.879V7.887l13.993,6.388
	l0.006,16.256L1.669,23.879z M3.202,7.285L8.223,5.06l12.553,5.897l-4.592,2.195L3.202,7.285z M30.358,23.698l-13.307,6.294
	l0.019-15.722l4.873-2.396l0.031,7.692l4.169-2.288V9.777l4.215-2.062V23.698z"></path>
  </g>
  <g id="package-open" data-iconmelon="e-commerce icons:f6f0117921fb04bcc880591cf3e87247">
    <path d="M25.776,12.457l0.203-0.146l-0.171-0.12l3.938-4.655L19.308,0.006L16.045,4.75L12.95,0L1.913,7.429l3.763,4.749l0.143,0.156
	l-0.104,0.146l-3.761,5.371l4.021,2.883v4.088L16.099,32l0.026-0.033l9.364-7.118V21.12l4.598-3.093L25.776,12.457z M19.648,1.892
	l8.115,5.9l-3.065,3.622l-7.731-5.621L19.648,1.892z M3.864,7.719l8.714-5.82l2.532,3.886L9.838,9.471l-3.056,1.932L3.864,7.719z
	 M3.823,17.531l2.987-4.267l8.365,5.776l-2.702,4.481L3.823,17.531z M15.401,30.123L7.323,24.17V21.7l5.552,3.769l2.526-4.189
	V30.123z M16.089,18.046l-0.215-0.164l-8.059-5.556l3.584-2.302l4.632-3.239l7.62,5.543l-7.384,5.556L16.089,18.046z M24.141,24.143
	l-7.392,5.975v-8.892l2.613,4.221l4.778-3.419V24.143z M19.772,23.545l-2.792-4.511l7.701-5.786l3.457,4.466L19.772,23.545z"></path>
  </g>
  <g id="open-sign" data-iconmelon="e-commerce icons:260d8a3b922d25ec5486553e8bfa24ca">
    <path d="M18.49,6.271l1.812-0.627l-6.778-1.311c0.016,0.108,0.033,0.217,0.033,0.329c0,0.222-0.041,0.432-0.098,0.636L18.49,6.271z
	 M8.249,16.849c-1.49,0.506-2.213,1.938-1.709,3.42c0.504,1.482,1.949,2.176,3.439,1.669c1.482-0.504,2.206-1.935,1.701-3.417
	C11.176,17.038,9.731,16.344,8.249,16.849z M9.663,21.009c-0.915,0.311-1.735-0.191-2.046-1.106
	c-0.313-0.922,0.033-1.813,0.948-2.125c0.908-0.309,1.726,0.188,2.04,1.109C10.915,19.801,10.57,20.7,9.663,21.009z M9.931,6.629
	C9.661,6.452,9.427,6.224,9.249,5.953l-4.347,5.012l1.812-0.626L9.931,6.629z M13.879,15.024l-2.301,0.782l1.673,4.92l1.047-0.356
	l-0.597-1.755l1.254-0.427c1.062-0.361,1.406-1.284,1.115-2.141C15.778,15.186,14.949,14.66,13.879,15.024z M14.494,17.316
	l-1.106,0.376l-0.449-1.32l1.106-0.376c0.413-0.14,0.815,0.003,0.956,0.415C15.14,16.817,14.908,17.177,14.494,17.316z
	 M31.834,17.321l-3.268-9.923c-0.568-1.726-2.436-2.668-4.161-2.1L2.265,12.591c-1.726,0.568-2.668,2.436-2.099,4.161l3.268,9.922
	c0.569,1.727,2.435,2.668,4.161,2.101l22.141-7.292C31.461,20.913,32.403,19.047,31.834,17.321z M29.341,20.286L7.201,27.577
	c-1.066,0.352-2.246-0.222-2.597-1.288l-3.268-9.923c-0.352-1.066,0.256-2.229,1.323-2.58l22.141-7.291
	c1.066-0.352,2.246,0.222,2.598,1.288l3.268,9.923C31.016,18.772,30.408,19.935,29.341,20.286z M18.593,17.882l-0.381-1.121
	l2.382-0.811l-0.313-0.922l-2.382,0.81l-0.352-1.032l2.435-0.828l-0.314-0.922l-3.48,1.184l1.672,4.92l3.482-1.184l-0.314-0.922
	L18.593,17.882z M23.841,11.637l1.051,3.091l-3.33-2.315l-1.077,0.366l1.673,4.92l1.048-0.356l-1.092-3.208l3.437,2.41l1.011-0.343
	l-1.673-4.92L23.841,11.637z M11.208,6.262c0.884,0,1.601-0.717,1.601-1.601c0-0.885-0.717-1.602-1.601-1.602
	c-0.884,0-1.601,0.717-1.601,1.602C9.607,5.545,10.324,6.262,11.208,6.262z"></path>
  </g>
  <g id="calculator" data-iconmelon="e-commerce icons:da8e51b9071c08f04fafeb4eaf41cf1b">
    <path d="M12.839,24.367H10.78c-0.36,0-0.651,0.292-0.651,0.652v2.186c0,0.36,0.291,0.652,0.651,0.652h2.059
	c0.36,0,0.652-0.292,0.652-0.652V25.02C13.491,24.659,13.199,24.367,12.839,24.367z M7.363,14.642H5.178
	c-0.36,0-0.652,0.292-0.652,0.652v2.187c0,0.359,0.292,0.652,0.652,0.652h2.186c0.36,0,0.652-0.293,0.652-0.652v-2.187
	C8.016,14.934,7.724,14.642,7.363,14.642z M12.839,19.504H10.78c-0.36,0-0.651,0.293-0.651,0.653v2.186
	c0,0.36,0.291,0.652,0.651,0.652h2.059c0.36,0,0.652-0.292,0.652-0.652v-2.186C13.491,19.797,13.199,19.504,12.839,19.504z
	 M7.363,24.367H5.178c-0.36,0-0.652,0.292-0.652,0.652v2.186c0,0.36,0.292,0.652,0.652,0.652h2.186c0.36,0,0.652-0.292,0.652-0.652
	V25.02C8.016,24.659,7.724,24.367,7.363,24.367z M7.189,12.522h9.273c1.468,0,2.661-1.162,2.661-2.591V6.777
	c0-1.428-1.193-2.59-2.661-2.59H7.189c-1.467,0-2.661,1.162-2.661,2.59v3.154C4.528,11.36,5.723,12.522,7.189,12.522z M5.918,6.777
	c0-0.662,0.57-1.201,1.271-1.201h9.273c0.701,0,1.271,0.539,1.271,1.201v3.154c0,0.663-0.57,1.201-1.271,1.201H7.189
	c-0.701,0-1.271-0.538-1.271-1.201V6.777z M7.363,19.504H5.178c-0.36,0-0.652,0.293-0.652,0.653v2.186
	c0,0.36,0.292,0.652,0.652,0.652h2.186c0.36,0,0.652-0.292,0.652-0.652v-2.186C8.016,19.797,7.724,19.504,7.363,19.504z M19.619,0
	H4.013C2.007,0,0.375,1.631,0.375,3.637v24.726C0.375,30.368,2.007,32,4.013,32h15.606c2.006,0,3.637-1.632,3.637-3.638V3.637
	C23.256,1.631,21.625,0,19.619,0z M21.896,28.362c0,1.239-1.038,2.248-2.277,2.248H4.013c-1.24,0-2.277-1.009-2.277-2.248V3.637
	c0-1.24,1.037-2.248,2.277-2.248h15.606c1.239,0,2.277,1.008,2.277,2.248V28.362z M18.479,14.642h-2.187
	c-0.36,0-0.652,0.292-0.652,0.652v2.187c0,0.359,0.292,0.652,0.652,0.652h2.187c0.359,0,0.652-0.293,0.652-0.652v-2.187
	C19.131,14.934,18.838,14.642,18.479,14.642z M28.583,4.87h-4.577v1.39h4.577c0.911,0,1.652,0.741,1.652,1.653v0.481h-6.229v3.435
	h6.229v3.909c0,0.911-0.741,1.652-1.652,1.652h-4.577v1.39h4.577c1.677,0,3.042-1.364,3.042-3.042V7.913
	C31.625,6.235,30.26,4.87,28.583,4.87z M18.479,24.367h-2.187c-0.36,0-0.652,0.292-0.652,0.652v2.186
	c0,0.36,0.292,0.652,0.652,0.652h2.187c0.359,0,0.652-0.292,0.652-0.652V25.02C19.131,24.659,18.838,24.367,18.479,24.367z
	 M18.479,19.504h-2.187c-0.36,0-0.652,0.293-0.652,0.653v2.186c0,0.36,0.292,0.652,0.652,0.652h2.187
	c0.359,0,0.652-0.292,0.652-0.652v-2.186C19.131,19.797,18.838,19.504,18.479,19.504z M12.839,14.642H10.78
	c-0.36,0-0.651,0.292-0.651,0.652v2.187c0,0.359,0.291,0.652,0.651,0.652h2.059c0.36,0,0.652-0.293,0.652-0.652v-2.187
	C13.491,14.934,13.199,14.642,12.839,14.642z"></path>
  </g>
  <g id="wallet" data-iconmelon="e-commerce icons:5c2d1c2de5d0cae7bf7d6c17d11c12f4">
    <path d="M28.674,1.247H3.354C1.504,1.247,0,2.751,0,4.6v22.8c0,1.85,1.504,3.354,3.354,3.354h25.32c1.85,0,3.326-1.504,3.326-3.354
	V4.6C32,2.751,30.523,1.247,28.674,1.247z M30.747,19.84h-7.809c-0.647,0-1.173-0.497-1.173-1.108v-6.111
	c0-0.61,0.526-1.108,1.173-1.108h7.809V19.84z M30.747,10.232h-7.809c-1.353,0-2.454,1.072-2.454,2.389v6.111
	c0,1.317,1.101,2.389,2.454,2.389h7.809V27.4c0,1.143-0.93,2.073-2.073,2.073H3.354c-1.143,0-2.1-0.93-2.1-2.073V4.6
	c0-1.143,0.957-2.072,2.1-2.072h25.32c1.143,0,2.073,0.929,2.073,2.072V10.232z M24.659,17.191c0.828,0,1.5-0.672,1.5-1.5
	s-0.672-1.5-1.5-1.5s-1.5,0.672-1.5,1.5S23.831,17.191,24.659,17.191z"></path>
  </g>
  <g id="money3" data-iconmelon="e-commerce icons:3a48067d226bd804f93e266932f5cbc2">
    <path d="M19.986,6.654C21.786,3.297,24.474,0,24.474,0H7.478c0,0,2.739,3.308,4.535,6.654c-2.507,1.37-8.729,5.797-8.627,15.941
	c0.4,6.065,4.077,9.401,10.927,9.401l0.959-0.006c0.144,0,0.27,0.001,0.436,0.009c0.083,0,0.183-0.01,0.292-0.037
	C16.108,31.99,16.207,32,16.291,32l0.06-0.002c0.107-0.006,0.233-0.007,0.376-0.007l0.959,0.006c6.851,0,10.526-3.336,10.929-9.446
	C28.715,12.446,22.493,8.023,19.986,6.654z M17.685,30.374l-0.959-0.006c-0.099,0-0.191,0.001-0.277,0.003h-0.9
	c-0.085-0.002-0.177-0.003-0.277-0.003l-0.959,0.006c-4.099,0-8.861-1.128-9.305-7.839C4.905,12.159,12.01,8.401,13.436,7.755
	l0.741-0.338l-0.339-0.74c-0.744-1.621-2.133-3.986-3.072-5.264h10.467c-0.939,1.277-2.328,3.643-3.073,5.264l-0.339,0.74
	l0.741,0.338c1.425,0.646,8.532,4.404,8.43,14.734C26.547,29.246,21.785,30.374,17.685,30.374z M17.647,17.739
	c-0.322-0.09-0.625-0.16-0.911-0.232v-3.16c0.803,0,1.464,0.769,1.481,1.715h2.536c-0.143-2.465-1.893-3.571-4.018-3.804v-1.375
	h-1.053v1.375c-2.143,0.125-4.143,1.375-4.143,3.821c0,2.374,1.785,3.071,3.571,3.553c0.232,0.055,0.447,0.107,0.572,0.161v3.731
	c-1.09-0.214-1.929-1.035-1.911-2.356h-2.536c0.268,2.803,1.804,4.249,4.447,4.446v1.518h1.053v-1.518
	c3.553-0.232,4.464-2.715,4.464-3.732C21.201,20.687,21.129,18.704,17.647,17.739z M15.684,17.257
	c-1.143-0.268-1.607-0.643-1.607-1.428c0-0.982,0.803-1.482,1.607-1.482V17.257z M16.737,23.524v-3.428
	c1.41,0.393,1.928,0.732,1.928,1.679C18.665,22.918,17.611,23.436,16.737,23.524z"></path>
  </g>
</svg>